<?xml version="1.0" encoding="UTF-8"?>
<svg id="ELEMENTS" xmlns="http://www.w3.org/2000/svg" version="1.1" viewBox="0 0 78.42 72.91">
  <!-- Generator: Adobe Illustrator 30.5.1, SVG Export Plug-In . SVG Version: 2.1.4 Build 3)  -->
  <defs>
    <style>
      .st0 {
        fill: #8f9d7a;
        fill-rule: evenodd;
      }
    </style>
  </defs>
  <path class="st0" d="M69.14,48.17c-3.33-1.99-7.66-4.21-11.57-2.61-3.01,1.23-4.93,5.94-6.87,8.34-1,1.23-2.19,1.43-3.73.81-11.29-4.49-19.93-12.03-26.16-22.41-1.05-1.61-.87-2.88.41-4.38,1.88-2.21,4.24-4.73,4.75-7.72.51-2.98-.89-6.47-2.13-9.13-1.58-3.4-3.34-8.24-6.74-10.16-3.13-1.77-7.25-.78-10.03,1.49C2.25,6.31-.07,12.45,0,18.53c.02,1.73.23,3.45.64,5.12.97,4.01,2.83,7.76,4.91,11.32,1.57,2.69,3.28,5.29,5.13,7.8,6.04,8.2,13.55,15.33,22.24,20.65,4.34,2.66,9.02,4.99,13.87,6.6,5.43,1.8,10.28,3.66,16.15,2.55,6.14-1.17,12.2-4.97,14.64-10.89.72-1.75,1.08-3.71.68-5.56-.84-3.83-6.02-6.1-9.11-7.96Z"/>
</svg>