<?xml version="1.0" encoding="UTF-8"?>
<svg id="ELEMENTS" xmlns="http://www.w3.org/2000/svg" version="1.1" viewBox="0 0 75.39 58.03">
  <!-- Generator: Adobe Illustrator 30.5.1, SVG Export Plug-In . SVG Version: 2.1.4 Build 3)  -->
  <defs>
    <style>
      .st0 {
        fill: #8f9d7a;
      }
    </style>
  </defs>
  <path class="st0" d="M5.61.81l26.2,29.72c1.49,1.69,3.63,2.66,5.89,2.66s4.4-.97,5.89-2.66L69.33,1.32c.21-.24.46-.43.73-.58-1.09-.48-2.29-.75-3.56-.75H8.9c-1.21,0-2.37.24-3.42.68.04.04.09.08.13.13Z"/>
  <path class="st0" d="M74.02,4.17c-.12.3-.28.59-.5.85l-25.74,29.21c-2.55,2.89-6.22,4.55-10.08,4.55s-7.53-1.66-10.08-4.55L1.42,4.5c-.05-.06-.09-.13-.14-.19-.81,1.34-1.28,2.9-1.28,4.58v40.23c0,4.91,3.98,8.9,8.9,8.9h57.6c4.91,0,8.9-3.98,8.9-8.9V8.9c0-1.74-.51-3.36-1.37-4.73Z"/>
</svg>