<?xml version="1.0" encoding="UTF-8"?>
<svg id="ELEMENTS" xmlns="http://www.w3.org/2000/svg" version="1.1" viewBox="0 0 80.87 81.06">
  <!-- Generator: Adobe Illustrator 30.5.1, SVG Export Plug-In . SVG Version: 2.1.4 Build 3)  -->
  <defs>
    <style>
      .st0, .st1 {
        fill: #8f9d7a;
      }

      .st1 {
        fill-rule: evenodd;
      }
    </style>
  </defs>
  <path class="st0" d="M0,81.06l5.81-21.68c-3.29-5.94-5.02-12.59-5.02-19.34C.79,17.96,18.75,0,40.83,0s40.04,17.96,40.04,40.04-17.96,40.04-40.04,40.04c-6.63,0-13.17-1.67-19.03-4.85L0,81.06ZM22.88,67.1l1.37.82c5.04,3,10.77,4.59,16.58,4.59,17.9,0,32.47-14.57,32.47-32.47S58.73,7.57,40.83,7.57,8.36,22.13,8.36,40.04c0,5.91,1.64,11.73,4.75,16.83l.84,1.38-3.24,12.11,12.18-3.26Z"/>
  <path class="st1" d="M55.72,45.61c-1.65-.99-3.79-2.09-5.73-1.29-1.49.61-2.44,2.94-3.41,4.13-.5.61-1.09.71-1.85.4-5.59-2.23-9.88-5.96-12.96-11.1-.52-.8-.43-1.43.2-2.17.93-1.1,2.1-2.34,2.35-3.82.25-1.48-.44-3.21-1.05-4.52-.78-1.68-1.65-4.08-3.34-5.03-1.55-.88-3.59-.39-4.97.74-2.38,1.94-3.53,4.98-3.5,7.99,0,.86.12,1.71.31,2.54.48,1.99,1.4,3.84,2.43,5.61.78,1.33,1.63,2.62,2.54,3.86,2.99,4.06,6.71,7.59,11.02,10.23,2.15,1.32,4.47,2.47,6.87,3.27,2.69.89,5.09,1.82,8,1.26,3.04-.58,6.04-2.46,7.25-5.4.36-.87.54-1.84.34-2.75-.41-1.9-2.98-3.02-4.52-3.94Z"/>
</svg>